<svg id="Layer_2" data-name="Layer 2" xmlns="http://www.w3.org/2000/svg" viewBox="0 0 572.17 573.24"><defs><style>.cls-1{fill:#fff;}.cls-2,.cls-3,.cls-5{stroke:#000;stroke-miterlimit:10;}.cls-3{fill:#00aeef;}.cls-4,.cls-5{fill:none;}</style></defs><path class="cls-1" d="M187.39,470.56v.23l-.14-.23Z" transform="translate(-20.17 -110.89)"/><path class="cls-1" d="M187.39,470.56h-.14A138.26,138.26,0,0,1,167,398.32" transform="translate(-20.17 -110.89)"/><path class="cls-1" d="M167,398.34a137.53,137.53,0,0,1,1.44-19.91" transform="translate(-20.17 -110.89)"/><path class="cls-1" d="M168.46,378.41a137.55,137.55,0,0,1,18.93-52.56" transform="translate(-20.17 -110.89)"/><path class="cls-1" d="M168.46,378.41A137.64,137.64,0,0,0,167,398.32V378.41Z" transform="translate(-20.17 -110.89)"/><path class="cls-1" d="M117.88,378.41a190,190,0,0,0-1,19.91V378.41Z" transform="translate(-20.17 -110.89)"/><path class="cls-1" d="M117.57,487.48h-.74v-1.55C117.07,486.45,117.32,487,117.57,487.48Z" transform="translate(-20.17 -110.89)"/><path class="cls-1" d="M116.83,378.43" transform="translate(-20.17 -110.89)"/><path class="cls-1" d="M98.51,378.41q-.93,9.82-.93,19.91V378.41Z" transform="translate(-20.17 -110.89)"/><path d="M591.15,377.35H513.47c-10-105.76-99.08-188.5-207.48-188.5A208.28,208.28,0,0,0,98.51,377.35h0l-.93,215.51A285.53,285.53,0,0,1,34.34,486.42q-2.75-8.35-5-16.92a285.88,285.88,0,0,1-9.21-72.24q0-10,.68-19.91A284.65,284.65,0,0,1,97.58,201.67c6.11-6.54,12.55-12.77,19.25-18.7A286.76,286.76,0,0,1,167,147.42c6.63-3.69,13.43-7.14,20.37-10.29a286.58,286.58,0,0,1,119-26.24C457.51,110.89,580.92,228.76,591.15,377.35Z" transform="translate(-20.17 -110.89)"/><path class="cls-2" d="M591.83,398.32a285.88,285.88,0,0,1-9.21,72.24q-2.22,8.56-5,16.92A285.09,285.09,0,0,1,306.34,683.63c-42.3,0-82.83-8.66-118.95-25.18V569.71a208.47,208.47,0,0,0,307-82.23q3.93-8.26,7.12-16.92h-136a138.18,138.18,0,0,0,20.24-72.24Z" transform="translate(-20.17 -110.89)"/><path class="cls-3" d="M413.11,487.48h60.27a189.17,189.17,0,0,1-285.48,58.2,186.09,186.09,0,0,1-20.36-19V648.16a285.86,285.86,0,0,1-50.19-35.55V398.32a192.72,192.72,0,0,1,1-19.91A189.21,189.21,0,0,1,306.51,209.15c97.76,0,178.18,74.14,188.13,169.26H444.06a139,139,0,0,0-275.09,0h0l-1.43,19.91a138.35,138.35,0,0,0,20.22,72.24l.14.23a135.49,135.49,0,0,0,12,16.69,138.94,138.94,0,0,0,213.2,0Z" transform="translate(-20.17 -110.89)"/><path class="cls-4" d="M276.49,534.55c-23.38-6.24-45.21-15.59-63.92-32.75-10.92-10.91-21.83-23.38-29.63-37.42-1.56-3.11-1.56-7.79-4.67-10.91-1.56-1.56-1.56-4.68-1.56-6.24-1.56-1.56-3.12-3.11-3.12-4.67a144.17,144.17,0,0,1,0-88.88C184.5,320.94,206.33,296,236,277.29c1.56-1.56,4.68,0,6.24-1.56,10.92-7.8,21.83-9.36,34.21-13.23" transform="translate(-20.17 -110.89)"/><path class="cls-4" d="M385.79,398.32c1.67,18.42-1.71,28.64-8,47.35a76.05,76.05,0,0,0-4.68,10.92" transform="translate(-20.17 -110.89)"/><path class="cls-5" d="M116.83,485.93" transform="translate(-20.17 -110.89)"/><path class="cls-4" d="M116.83,612.61" transform="translate(-20.17 -110.89)"/><path class="cls-4" d="M167,243" transform="translate(-20.17 -110.89)"/><path class="cls-4" d="M167,270" transform="translate(-20.17 -110.89)"/><path class="cls-4" d="M167,148.48" transform="translate(-20.17 -110.89)"/><line class="cls-4" x1="167.22" y1="359.67" x2="167.22" y2="359.9"/><path class="cls-4" d="M187.39,325.85" transform="translate(-20.17 -110.89)"/><path class="cls-4" d="M187.39,545.68" transform="translate(-20.17 -110.89)"/><path class="cls-4" d="M187.39,138.19" transform="translate(-20.17 -110.89)"/><path class="cls-4" d="M97.58,593.92" transform="translate(-20.17 -110.89)"/><path class="cls-4" d="M591.15,378.41" transform="translate(-20.17 -110.89)"/><path class="cls-4" d="M168.46,378.41" transform="translate(-20.17 -110.89)"/><path class="cls-4" d="M494.12,378.41" transform="translate(-20.17 -110.89)"/><path class="cls-4" d="M513.47,378.41" transform="translate(-20.17 -110.89)"/><path class="cls-4" d="M591.83,398.32" transform="translate(-20.17 -110.89)"/><path class="cls-4" d="M20.17,398.32" transform="translate(-20.17 -110.89)"/><path class="cls-4" d="M116.83,470.56" transform="translate(-20.17 -110.89)"/><path class="cls-4" d="M97.58,470.56" transform="translate(-20.17 -110.89)"/><path class="cls-4" d="M582.62,470.56" transform="translate(-20.17 -110.89)"/><path class="cls-4" d="M29.38,470.56" transform="translate(-20.17 -110.89)"/><path class="cls-4" d="M97.58,487.48" transform="translate(-20.17 -110.89)"/><path class="cls-4" d="M577.66,487.48" transform="translate(-20.17 -110.89)"/><path class="cls-4" d="M34.34,487.48" transform="translate(-20.17 -110.89)"/></svg>