<?xml version="1.0" encoding="utf-8"?>
<!-- Generator: Adobe Illustrator 26.0.3, SVG Export Plug-In . SVG Version: 6.00 Build 0)  -->
<svg version="1.1" id="Layer_2" xmlns="http://www.w3.org/2000/svg" xmlns:xlink="http://www.w3.org/1999/xlink" x="0px" y="0px"
	 viewBox="0 0 612 792" style="enable-background:new 0 0 612 792;" xml:space="preserve">
<style type="text/css">
	.st0{fill:#FFFFFF;}
	.st1{stroke:#000000;stroke-miterlimit:10;}
	.st2{fill:#00AEEF;stroke:#000000;stroke-miterlimit:10;}
	.st3{fill:none;}
	.st4{fill:none;stroke:#000000;stroke-miterlimit:10;}
</style>
<g id="XMLID_00000173127872130039642420000016857083835589688463_">
	<g>
		<path class="st0" d="M271.63,367.23v0.15c-0.03-0.05-0.06-0.1-0.09-0.15H271.63z"/>
		<path class="st0" d="M271.63,367.23h-0.09c-8.23-13.5-12.97-29.36-12.97-46.33"/>
		<path class="st0" d="M258.57,320.91c0-4.34,0.31-8.6,0.92-12.77"/>
		<path class="st0" d="M259.49,308.13c1.74-12.21,5.96-23.63,12.14-33.71"/>
		<path class="st0" d="M259.49,308.13c-0.61,4.17-0.92,8.43-0.92,12.77v-12.77H259.49z"/>
		<path class="st0" d="M227.05,308.13c-0.44,4.2-0.67,8.46-0.67,12.77v-12.77H227.05z"/>
		<path class="st0" d="M226.85,378.08h-0.47v-0.99C226.53,377.42,226.69,377.75,226.85,378.08z"/>
		<path class="st0" d="M226.38,308.14"/>
		<path class="st0" d="M214.63,308.13c-0.4,4.2-0.6,8.46-0.6,12.77v-12.77H214.63z"/>
	</g>
	<g>
		<path d="M530.59,307.45h-49.82c-6.43-67.83-63.55-120.9-133.07-120.9c-28.26,0-54.48,8.77-76.07,23.75
			c-4.57,3.16-8.93,6.6-13.06,10.3c-13.48,12.07-24.49,26.83-32.19,43.43c-6.23,13.42-10.29,28.04-11.75,43.42l0,0l-0.6,138.22
			c-18.13-19.3-32.11-42.53-40.56-68.27c-1.17-3.57-2.23-7.19-3.18-10.85c-3.86-14.8-5.91-30.33-5.91-46.33
			c0-4.29,0.15-8.55,0.44-12.77c2.99-43.48,21.14-82.79,49.21-112.68c3.92-4.19,8.05-8.19,12.35-11.99
			c9.85-8.7,20.63-16.36,32.19-22.8c4.25-2.37,8.61-4.58,13.06-6.6c23.17-10.59,49.16-16.83,76.29-16.83
			C444.88,136.55,524.03,212.15,530.59,307.45z"/>
		<path class="st1" d="M531.03,320.9c0,16-2.05,31.53-5.91,46.33c-0.95,3.66-2.01,7.28-3.18,10.85
			c-24.03,73.25-92.74,125.81-174.02,125.81c-27.13,0-53.12-5.56-76.29-16.15v-56.92c21.59,14.98,47.81,23.75,76.07,23.75
			c53.37,0,99.43-31.27,120.85-76.49c1.68-3.53,3.21-7.15,4.57-10.85H385.9c8.24-13.5,12.98-29.36,12.98-46.33H531.03z"/>
		<path class="st2" d="M416.4,378.08h38.66c-20.43,38.18-60.7,64.15-107.03,64.15c-28.81,0-55.27-10.04-76.07-26.82
			c-4.65-3.74-9.02-7.82-13.06-12.21v77.94c-11.56-6.44-22.34-14.1-32.19-22.8v-80.26V320.9c0-4.31,0.23-8.57,0.67-12.77
			c1.56-14.99,5.86-29.16,12.38-42.02c5.1-10.06,11.56-19.31,19.14-27.51c4.04-4.39,8.41-8.47,13.06-12.21
			c20.8-16.78,47.26-26.82,76.07-26.82c62.7,0,114.28,47.55,120.66,108.56h-32.44c-6.18-43.18-43.33-76.37-88.22-76.37
			c-6.51,0-12.87,0.7-18.98,2.03c-24.12,5.23-44.59,20.22-57.09,40.63c-6.18,10.08-10.4,21.5-12.14,33.71l0,0l-0.92,12.77
			c0,16.97,4.74,32.83,12.97,46.33c0.03,0.05,0.06,0.1,0.09,0.15c2.3,3.76,4.87,7.34,7.7,10.7c12.46,14.9,29.71,25.67,49.39,29.93
			c6.11,1.33,12.47,2.03,18.98,2.03C375.5,410.04,400.06,397.62,416.4,378.08z"/>
		<path class="st3" d="M328.78,408.27c-15-4-29-10-41-21c-7-7-14-15-19-24c-1-2-1-5-3-7c-1-1-1-3-1-4c-1-1-2-2-2-3c-6-19-6-38,0-57
			c7-21,21-37,40-49c1-1,3,0,4-1c7-5,14-6,21.94-8.48"/>
		<path class="st3" d="M398.88,320.9c1.07,11.81-1.1,18.37-5.1,30.37c-1,2-2,4-3,7"/>
		<path class="st4" d="M226.38,377.09"/>
		<path class="st3" d="M226.38,458.34"/>
		<path class="st3" d="M258.57,221.28"/>
		<path class="st3" d="M258.57,238.6"/>
		<path class="st3" d="M258.57,160.66"/>
		<line class="st3" x1="271.63" y1="367.23" x2="271.63" y2="367.38"/>
		<path class="st3" d="M271.63,274.42"/>
		<path class="st3" d="M271.63,415.41"/>
		<path class="st3" d="M271.63,154.06"/>
		<path class="st3" d="M214.03,446.35"/>
		<path class="st3" d="M530.59,308.13"/>
		<path class="st3" d="M259.49,308.13"/>
		<path class="st3" d="M468.36,308.13"/>
		<path class="st3" d="M480.77,308.13"/>
		<path class="st3" d="M531.03,320.9"/>
		<path class="st3" d="M164.38,320.9"/>
		<path class="st3" d="M226.38,367.23"/>
		<path class="st3" d="M214.03,367.23"/>
		<path class="st3" d="M525.12,367.23"/>
		<path class="st3" d="M170.29,367.23"/>
		<path class="st3" d="M214.03,378.08"/>
		<path class="st3" d="M521.94,378.08"/>
		<path class="st3" d="M173.47,378.08"/>
	</g>
</g>
</svg>
